<?xml version="1.0" standalone="no"?>
<!DOCTYPE svg PUBLIC "-//W3C//DTD SVG 1.1//EN" "http://www.w3.org/Graphics/SVG/1.1/DTD/svg11.dtd">
<svg xmlns="http://www.w3.org/2000/svg" width="117" height="25" viewBox="0 0 117 25" fill="none">
<path d="M18.5504 0.779297V6.16446H12.288V24.474H6.7624V6.16446H0.5V0.779297H18.5504Z" fill="black"/>
<path d="M38.0571 18.7298C38.0571 22.1763 40.4147 24.474 43.9511 24.474H56.1075L56.4715 24.4741C60.0079 24.4741 62.3656 22.1764 62.3656 18.7299L62.3613 12.2676H69.3604V24.474H74.8861V0.779297H69.3604V6.88248H62.3613V0.779297H56.8356V13.8019L56.8399 18.7299C56.8399 18.9453 56.6926 19.0889 56.4715 19.0889L43.9511 19.0888C43.7301 19.0888 43.5827 18.9452 43.5827 18.7298V6.52347C43.5827 6.30806 43.7301 6.16446 43.9511 6.16446H50.2135C50.4345 6.16446 50.5819 6.30806 50.5819 6.52347V12.2676H56.1075V6.52347C56.1075 3.07697 53.7499 0.779297 50.2135 0.779297H43.9511C40.4147 0.779297 38.0571 3.07697 38.0571 6.52347V18.7298Z" fill="black"/>
<path d="M18.8549 24.474C15.3185 24.474 12.9609 22.1763 12.9609 18.7298C12.9609 15.2833 15.3185 12.9857 18.8549 12.9857H31.4258C31.6469 12.9857 31.7942 12.878 31.7942 12.6267C31.7942 12.4471 31.6469 12.2676 31.4258 12.2676H25.1634C21.627 12.2676 19.2694 9.96998 19.2694 6.52347C19.2694 3.07697 21.627 0.779297 25.1634 0.779297H37.3199V6.16446H25.1634C24.9424 6.16446 24.7951 6.30806 24.7951 6.52347C24.7951 6.73888 24.9424 6.88248 25.1634 6.88248H31.4258C34.9622 6.88248 37.3199 9.18015 37.3199 12.6267C37.3199 16.0732 34.9622 18.3708 31.4258 18.3708H18.8549C18.6339 18.3708 18.4865 18.5144 18.4865 18.7298C18.4865 18.9452 18.6339 19.0888 18.8549 19.0888H37.3199V24.474H18.8549Z" fill="black"/>
<path d="M81.8612 18.7299C81.8612 22.1764 84.2188 24.4741 87.7553 24.4741L93.6493 24.474V19.0888L87.7553 19.0889C87.5342 19.0889 87.3869 18.9453 87.3869 18.7299L87.3869 6.16446H93.6493V0.779297H75.5988V6.16446H81.8612V18.7299Z" fill="black"/>
<path d="M100.217 24.4753C96.6806 24.4753 94.323 22.1776 94.323 18.7311V6.52475C94.323 3.07825 96.6806 0.780576 100.217 0.780576H110.606C114.142 0.780576 116.5 3.07825 116.5 6.52475V18.7311C116.5 22.1776 114.142 24.4753 110.606 24.4753H100.217ZM99.8487 18.7311C99.8487 18.9465 99.996 19.0901 100.217 19.0901H110.606C110.827 19.0901 110.974 18.9465 110.974 18.7311V6.52475C110.974 6.30934 110.827 6.16575 110.606 6.16575H100.217C99.996 6.16575 99.8487 6.30934 99.8487 6.52475V18.7311Z" fill="black"/>
</svg>